<svg width="119" height="119" viewBox="0 0 119 119" fill="none" xmlns="http://www.w3.org/2000/svg">
<g id="Group 480">
<circle id="Ellipse 207" cx="59.0178" cy="59.0178" r="56.9901" transform="matrix(-1 0 0 1 118.997 0.577637)" stroke="#282866" stroke-width="4.05543"/>
<g id="Union">
<path fill-rule="evenodd" clip-rule="evenodd" d="M39.1512 62.9843L92.8867 62.9843V58.9291L39.1512 58.9291L65.4689 32.6111L62.6014 29.7437L32.8223 59.523L31.3886 60.9567L32.8223 62.3905L62.6014 92.1695L65.4689 89.302L39.1512 62.9843Z" fill="#282866"/>
<path d="M39.1512 62.9843L39.0556 63.0799L38.8249 62.8491H39.1512V62.9843ZM92.8867 62.9843H93.0219V63.1195H92.8867L92.8867 62.9843ZM92.8867 58.9291L92.8867 58.7939H93.0219V58.9291H92.8867ZM39.1512 58.9291V59.0642H38.8249L39.0556 58.8335L39.1512 58.9291ZM65.4689 32.6111L65.5645 32.5156L65.6601 32.6111L65.5645 32.7067L65.4689 32.6111ZM62.6014 29.7437L62.5058 29.6481L62.6014 29.5525L62.697 29.6481L62.6014 29.7437ZM32.8223 59.523L32.7267 59.4274L32.8223 59.523ZM31.3886 60.9567L31.293 61.0523L31.1974 60.9567L31.293 60.8611L31.3886 60.9567ZM32.8223 62.3905L32.7267 62.486L32.8223 62.3905ZM62.6014 92.1695L62.697 92.2651L62.6014 92.3607L62.5058 92.2651L62.6014 92.1695ZM65.4689 89.302L65.5645 89.2064L65.6601 89.302L65.5645 89.3976L65.4689 89.302ZM39.1512 62.8491L92.8867 62.8492L92.8867 63.1195L39.1512 63.1195V62.8491ZM92.7515 62.9843V58.9291H93.0219V62.9843H92.7515ZM92.8867 59.0642L39.1512 59.0642V58.7939L92.8867 58.7939L92.8867 59.0642ZM39.0556 58.8335L65.3733 32.5156L65.5645 32.7067L39.2468 59.0246L39.0556 58.8335ZM65.3733 32.7067L62.5058 29.8392L62.697 29.6481L65.5645 32.5156L65.3733 32.7067ZM62.697 29.8392L32.9179 59.6185L32.7267 59.4274L62.5058 29.6481L62.697 29.8392ZM32.9179 59.6185L31.4842 61.0523L31.293 60.8611L32.7267 59.4274L32.9179 59.6185ZM31.4842 60.8611L32.9179 62.2949L32.7267 62.486L31.293 61.0523L31.4842 60.8611ZM32.9179 62.2949L62.697 92.0739L62.5058 92.2651L32.7267 62.486L32.9179 62.2949ZM62.5058 92.0739L65.3733 89.2064L65.5645 89.3976L62.697 92.2651L62.5058 92.0739ZM65.3733 89.3976L39.0556 63.0799L39.2468 62.8887L65.5645 89.2064L65.3733 89.3976Z" fill="white"/>
</g>
</g>
</svg>
