<svg width="211" height="53" viewBox="0 0 211 53" fill="none" xmlns="http://www.w3.org/2000/svg">
<g clip-path="url(#clip0_0_335)">
<path d="M69.9069 33.4448V22.7421C69.9069 22.6362 69.9915 22.5515 70.0972 22.5515H73.2946C73.4003 22.5515 73.4849 22.6362 73.4849 22.7421V33.3072C73.4849 37.278 75.2739 38.9881 78.3867 38.9881C81.4996 38.9881 83.2595 37.278 83.2595 33.3072V22.7421C83.2595 22.6362 83.344 22.5515 83.4497 22.5515H86.5917C86.6974 22.5515 86.7819 22.6362 86.7819 22.7421V33.4448C86.7819 39.0728 83.6162 42.133 78.3576 42.133C73.0991 42.133 69.9043 39.0728 69.9043 33.4448H69.9069Z" fill="#282866"/>
<path d="M111.928 22.7423V41.6673C111.928 41.7732 111.844 41.8579 111.738 41.8579H109.074C109.016 41.8579 108.963 41.8314 108.926 41.7864L98.3565 28.7833V41.6646C98.3565 41.7705 98.2719 41.8552 98.1662 41.8552H94.9979C94.8922 41.8552 94.8076 41.7705 94.8076 41.6646V22.7397C94.8076 22.6338 94.8922 22.5491 94.9979 22.5491H97.6615C97.7196 22.5491 97.7725 22.5755 97.8095 22.6205L108.379 35.6237V22.7423C108.379 22.6364 108.464 22.5517 108.57 22.5517H111.738C111.844 22.5517 111.928 22.6364 111.928 22.7423Z" fill="#282866"/>
<path d="M124.084 22.7421V41.6671C124.084 41.773 123.999 41.8577 123.893 41.8577H120.696C120.59 41.8577 120.506 41.773 120.506 41.6671V23.9651C120.506 23.8937 120.466 23.8275 120.4 23.7931L118.32 22.6415C118.275 22.6177 118.291 22.5515 118.342 22.5515H123.893C123.999 22.5515 124.084 22.6362 124.084 22.7421Z" fill="#282866"/>
<path d="M154.713 32.2034C154.713 26.4933 159.118 22.2737 165.093 22.2737C171.067 22.2737 175.472 26.4669 175.472 32.2034C175.472 37.9399 171.067 42.1331 165.093 42.1331C159.118 42.1331 154.713 37.9134 154.713 32.2034ZM171.865 32.2034C171.865 28.259 168.974 25.4186 165.093 25.4186C161.211 25.4186 158.32 28.259 158.32 32.2034C158.32 36.1477 161.211 38.9882 165.093 38.9882C168.974 38.9882 171.865 36.1477 171.865 32.2034Z" fill="#282866"/>
<path d="M200.552 41.6671L200.526 29.061L194.25 39.5599C194.215 39.6181 194.152 39.6525 194.086 39.6525H192.704C192.638 39.6525 192.574 39.6181 192.54 39.5599L186.264 29.2251V41.6671C186.264 41.773 186.179 41.8577 186.074 41.8577H183.043C182.937 41.8577 182.853 41.773 182.853 41.6671V22.7421C182.853 22.6362 182.937 22.5515 183.043 22.5515H185.688C185.754 22.5515 185.817 22.5859 185.852 22.6442L193.367 35.2105C193.404 35.274 193.494 35.2714 193.531 35.2105L200.911 22.6468C200.946 22.5886 201.009 22.5515 201.075 22.5515H203.72C203.826 22.5515 203.911 22.6362 203.911 22.7421L203.937 41.6671C203.937 41.773 203.852 41.8577 203.747 41.8577H200.742C200.637 41.8577 200.552 41.773 200.552 41.6671Z" fill="#282866"/>
<path d="M194.617 38.9219L193.479 40.8729C193.442 40.9364 193.352 40.9364 193.315 40.8729L192.176 38.9219" fill="#282866"/>
<path d="M147.239 36.8307L149.279 38.7764C149.353 38.8479 149.361 38.967 149.293 39.0438C147.501 41.0504 144.856 42.1304 141.759 42.1304C135.866 42.1304 131.461 37.9637 131.461 32.2007C131.461 26.4377 135.866 22.271 141.785 22.271C144.853 22.271 147.501 23.3511 149.29 25.3577C149.359 25.4344 149.353 25.5535 149.277 25.625L147.099 27.674L145.585 29.1035C145.551 29.1379 145.493 29.1035 145.506 29.0558L146.161 26.8957C146.172 26.856 146.161 26.8136 146.127 26.7898C144.919 25.8686 143.519 25.4159 141.949 25.4159C137.956 25.4159 135.065 28.2299 135.065 32.2007C135.065 36.1715 137.959 38.9855 141.949 38.9855C143.897 38.9855 145.585 38.2867 146.967 36.8386C147.041 36.7619 147.16 36.7566 147.237 36.8307H147.239Z" fill="#282866"/>
<path d="M208.483 22.5623C207.539 22.5623 206.749 23.2902 206.749 24.2591C206.749 25.228 207.539 25.956 208.483 25.956C209.426 25.956 210.221 25.2306 210.221 24.2591C210.221 23.2876 209.429 22.5623 208.483 22.5623ZM208.483 25.6171C207.743 25.6171 207.103 25.0215 207.103 24.2565C207.103 23.4914 207.743 22.8958 208.483 22.8958C209.222 22.8958 209.862 23.4914 209.862 24.2565C209.862 25.0215 209.228 25.6171 208.483 25.6171ZM209.18 23.9838C209.18 23.6503 208.926 23.4358 208.554 23.4358H207.906V24.9818H208.239V24.5185H208.496L208.815 24.9818H209.236L208.863 24.463C209.059 24.3809 209.177 24.2141 209.177 23.9838H209.18ZM208.551 24.2194H208.242V23.7509H208.551C208.731 23.7509 208.837 23.8462 208.837 23.9812C208.837 24.1241 208.731 24.2194 208.551 24.2194Z" fill="#282866"/>
<path d="M27.4103 7.48633C29.4739 7.48633 31.1468 5.81046 31.1468 3.74316C31.1468 1.67587 29.4739 0 27.4103 0C25.3467 0 23.6738 1.67587 23.6738 3.74316C23.6738 5.81046 25.3467 7.48633 27.4103 7.48633Z" fill="#282866"/>
<path d="M19.1872 7.62926C20.5284 7.62926 21.6157 6.54006 21.6157 5.19646C21.6157 3.85287 20.5284 2.76367 19.1872 2.76367C17.846 2.76367 16.7588 3.85287 16.7588 5.19646C16.7588 6.54006 17.846 7.62926 19.1872 7.62926Z" fill="#282866"/>
<path d="M35.6316 52.8861C36.9728 52.8861 38.06 51.7969 38.06 50.4533C38.06 49.1097 36.9728 48.0205 35.6316 48.0205C34.2904 48.0205 33.2031 49.1097 33.2031 50.4533C33.2031 51.7969 34.2904 52.8861 35.6316 52.8861Z" fill="#282866"/>
<path d="M42.8615 50.0139C44.9251 50.0139 46.598 48.338 46.598 46.2708C46.598 44.2035 44.9251 42.5276 42.8615 42.5276C40.7979 42.5276 39.125 44.2035 39.125 46.2708C39.125 48.338 40.7979 50.0139 42.8615 50.0139Z" fill="#282866"/>
<path d="M48.2283 42.2972C49.5695 42.2972 50.6567 41.208 50.6567 39.8644C50.6567 38.5208 49.5695 37.4316 48.2283 37.4316C46.8871 37.4316 45.7998 38.5208 45.7998 39.8644C45.7998 41.208 46.8871 42.2972 48.2283 42.2972Z" fill="#282866"/>
<path d="M3.73607 26.0751C5.07727 26.0751 6.16453 24.9859 6.16453 23.6423C6.16453 22.2987 5.07727 21.2095 3.73607 21.2095C2.39487 21.2095 1.30762 22.2987 1.30762 23.6423C1.30762 24.9859 2.39487 26.0751 3.73607 26.0751Z" fill="#282866"/>
<path d="M3.73649 35.7507C5.8001 35.7507 7.47299 34.0749 7.47299 32.0076C7.47299 29.9403 5.8001 28.2644 3.73649 28.2644C1.67289 28.2644 0 29.9403 0 32.0076C0 34.0749 1.67289 35.7507 3.73649 35.7507Z" fill="#282866"/>
<path d="M6.5935 42.2972C7.9347 42.2972 9.02195 41.208 9.02195 39.8644C9.02195 38.5208 7.9347 37.4316 6.5935 37.4316C5.2523 37.4316 4.16504 38.5208 4.16504 39.8644C4.16504 41.208 5.2523 42.2972 6.5935 42.2972Z" fill="#282866"/>
<path d="M48.2283 18.2181C49.5695 18.2181 50.6567 17.1289 50.6567 15.7853C50.6567 14.4417 49.5695 13.3525 48.2283 13.3525C46.8871 13.3525 45.7998 14.4417 45.7998 15.7853C45.7998 17.1289 46.8871 18.2181 48.2283 18.2181Z" fill="#282866"/>
<path d="M19.1872 52.8861C20.5284 52.8861 21.6157 51.7969 21.6157 50.4533C21.6157 49.1097 20.5284 48.0205 19.1872 48.0205C17.846 48.0205 16.7588 49.1097 16.7588 50.4533C16.7588 51.7969 17.846 52.8861 19.1872 52.8861Z" fill="#282866"/>
<path d="M35.6316 7.62926C36.9728 7.62926 38.06 6.54006 38.06 5.19646C38.06 3.85287 36.9728 2.76367 35.6316 2.76367C34.2904 2.76367 33.2031 3.85287 33.2031 5.19646C33.2031 6.54006 34.2904 7.62926 35.6316 7.62926Z" fill="#282866"/>
</g>
<defs>
<clipPath id="clip0_0_335">
<rect width="210.219" height="52.8887" fill="white"/>
</clipPath>
</defs>
</svg>
