<svg width="85" height="85" viewBox="0 0 85 85" fill="none" xmlns="http://www.w3.org/2000/svg">
<path d="M45.5816 11.9247C49.0137 11.9247 51.796 9.25529 51.796 5.96236C51.796 2.66944 49.0137 0 45.5816 0C42.1495 0 39.3672 2.66944 39.3672 5.96236C39.3672 9.25529 42.1495 11.9247 45.5816 11.9247Z" fill="#8282FF"/>
<path d="M31.9061 12.1502C34.1367 12.1502 35.945 10.4153 35.945 8.27511C35.945 6.13494 34.1367 4.39999 31.9061 4.39999C29.6755 4.39999 27.8672 6.13494 27.8672 8.27511C27.8672 10.4153 29.6755 12.1502 31.9061 12.1502Z" fill="#8282FF"/>
<path d="M59.2577 84.2409C61.4883 84.2409 63.2966 82.506 63.2966 80.3658C63.2966 78.2256 61.4883 76.4907 59.2577 76.4907C57.027 76.4907 55.2188 78.2256 55.2188 80.3658C55.2188 82.506 57.027 84.2409 59.2577 84.2409Z" fill="#8282FF"/>
<path d="M71.2847 79.6635C74.7168 79.6635 77.4991 76.9941 77.4991 73.7011C77.4991 70.4082 74.7168 67.7388 71.2847 67.7388C67.8526 67.7388 65.0703 70.4082 65.0703 73.7011C65.0703 76.9941 67.8526 79.6635 71.2847 79.6635Z" fill="#8282FF"/>
<path d="M80.203 67.3754C82.4336 67.3754 84.2419 65.6405 84.2419 63.5003C84.2419 61.3602 82.4336 59.6252 80.203 59.6252C77.9723 59.6252 76.1641 61.3602 76.1641 63.5003C76.1641 65.6405 77.9723 67.3754 80.203 67.3754Z" fill="#8282FF"/>
<path d="M6.2108 41.5338C8.44143 41.5338 10.2497 39.7989 10.2497 37.6587C10.2497 35.5185 8.44143 33.7836 6.2108 33.7836C3.98016 33.7836 2.17188 35.5185 2.17188 37.6587C2.17188 39.7989 3.98016 41.5338 6.2108 41.5338Z" fill="#8282FF"/>
<path d="M6.2144 56.9474C9.64652 56.9474 12.4288 54.278 12.4288 50.985C12.4288 47.6921 9.64652 45.0227 6.2144 45.0227C2.78228 45.0227 0 47.6921 0 50.985C0 54.278 2.78228 56.9474 6.2144 56.9474Z" fill="#8282FF"/>
<path d="M10.9608 67.3754C13.1914 67.3754 14.9997 65.6405 14.9997 63.5003C14.9997 61.3602 13.1914 59.6252 10.9608 59.6252C8.73016 59.6252 6.92188 61.3602 6.92188 63.5003C6.92188 65.6405 8.73016 67.3754 10.9608 67.3754Z" fill="#8282FF"/>
<path d="M80.203 29.018C82.4336 29.018 84.2419 27.283 84.2419 25.1429C84.2419 23.0027 82.4336 21.2678 80.203 21.2678C77.9723 21.2678 76.1641 23.0027 76.1641 25.1429C76.1641 27.283 77.9723 29.018 80.203 29.018Z" fill="#8282FF"/>
<path d="M31.9061 84.2409C34.1367 84.2409 35.945 82.506 35.945 80.3658C35.945 78.2256 34.1367 76.4907 31.9061 76.4907C29.6755 76.4907 27.8672 78.2256 27.8672 80.3658C27.8672 82.506 29.6755 84.2409 31.9061 84.2409Z" fill="#8282FF"/>
<path d="M59.2577 12.1502C61.4883 12.1502 63.2966 10.4153 63.2966 8.27511C63.2966 6.13494 61.4883 4.39999 59.2577 4.39999C57.027 4.39999 55.2188 6.13494 55.2188 8.27511C55.2188 10.4153 57.027 12.1502 59.2577 12.1502Z" fill="#8282FF"/>
</svg>
