<svg width="211" height="54" viewBox="0 0 211 54" fill="none" xmlns="http://www.w3.org/2000/svg">
<g clip-path="url(#clip0_0_774)">
<path d="M70.1804 33.8901V23.1874C70.1804 23.0815 70.2649 22.9968 70.3706 22.9968H73.5681C73.6738 22.9968 73.7583 23.0815 73.7583 23.1874V33.7525C73.7583 37.7233 75.5473 39.4334 78.6602 39.4334C81.773 39.4334 83.5329 37.7233 83.5329 33.7525V23.1874C83.5329 23.0815 83.6175 22.9968 83.7232 22.9968H86.8651C86.9708 22.9968 87.0554 23.0815 87.0554 23.1874V33.8901C87.0554 39.5181 83.8897 42.5783 78.6311 42.5783C73.3725 42.5783 70.1777 39.5181 70.1777 33.8901H70.1804Z" fill="white"/>
<path d="M112.201 23.1876V42.1126C112.201 42.2185 112.116 42.3032 112.011 42.3032H109.347C109.289 42.3032 109.236 42.2767 109.199 42.2317L98.629 29.2286V42.1099C98.629 42.2158 98.5444 42.3005 98.4387 42.3005H95.2703C95.1646 42.3005 95.0801 42.2158 95.0801 42.1099V23.185C95.0801 23.0791 95.1646 22.9944 95.2703 22.9944H97.934C97.9921 22.9944 98.045 23.0209 98.082 23.0659L108.652 36.069V23.1876C108.652 23.0817 108.737 22.997 108.842 22.997H112.011C112.116 22.997 112.201 23.0817 112.201 23.1876Z" fill="white"/>
<path d="M124.356 23.1874V42.1124C124.356 42.2183 124.272 42.303 124.166 42.303H120.968C120.863 42.303 120.778 42.2183 120.778 42.1124V24.4104C120.778 24.339 120.739 24.2728 120.672 24.2384L118.593 23.0868C118.548 23.063 118.564 22.9968 118.614 22.9968H124.166C124.272 22.9968 124.356 23.0815 124.356 23.1874Z" fill="white"/>
<path d="M154.986 32.6487C154.986 26.9387 159.391 22.719 165.366 22.719C171.341 22.719 175.746 26.9122 175.746 32.6487C175.746 38.3852 171.341 42.5784 165.366 42.5784C159.391 42.5784 154.986 38.3588 154.986 32.6487ZM172.139 32.6487C172.139 28.7044 169.248 25.8639 165.366 25.8639C161.484 25.8639 158.593 28.7044 158.593 32.6487C158.593 36.5931 161.484 39.4335 165.366 39.4335C169.248 39.4335 172.139 36.5931 172.139 32.6487Z" fill="white"/>
<path d="M200.826 42.1124L200.8 29.5063L194.524 40.0052C194.49 40.0634 194.426 40.0978 194.36 40.0978H192.978C192.912 40.0978 192.849 40.0634 192.814 40.0052L186.538 29.6705V42.1124C186.538 42.2183 186.454 42.303 186.348 42.303H183.317C183.212 42.303 183.127 42.2183 183.127 42.1124V23.1874C183.127 23.0815 183.212 22.9968 183.317 22.9968H185.962C186.028 22.9968 186.092 23.0312 186.126 23.0895L193.641 35.6558C193.678 35.7193 193.768 35.7167 193.805 35.6558L201.186 23.0921C201.22 23.0339 201.284 22.9968 201.35 22.9968H203.995C204.1 22.9968 204.185 23.0815 204.185 23.1874L204.211 42.1124C204.211 42.2183 204.127 42.303 204.021 42.303H201.017C200.911 42.303 200.826 42.2183 200.826 42.1124Z" fill="white"/>
<path d="M194.891 39.3672L193.752 41.3182C193.715 41.3817 193.625 41.3817 193.588 41.3182L192.449 39.3672" fill="white"/>
<path d="M147.513 37.276L149.553 39.2217C149.627 39.2932 149.635 39.4123 149.566 39.4891C147.774 41.4957 145.129 42.5757 142.032 42.5757C136.139 42.5757 131.734 38.409 131.734 32.646C131.734 26.883 136.139 22.7163 142.059 22.7163C145.127 22.7163 147.774 23.7964 149.563 25.803C149.632 25.8797 149.627 25.9989 149.55 26.0703L147.373 28.1193L145.859 29.5488C145.824 29.5832 145.766 29.5488 145.779 29.5011L146.435 27.341C146.445 27.3013 146.435 27.2589 146.4 27.2351C145.193 26.3139 143.792 25.8612 142.222 25.8612C138.23 25.8612 135.339 28.6752 135.339 32.646C135.339 36.6168 138.232 39.4308 142.222 39.4308C144.17 39.4308 145.859 38.732 147.241 37.2839C147.315 37.2072 147.433 37.2019 147.51 37.276H147.513Z" fill="white"/>
<path d="M208.755 23.0076C207.812 23.0076 207.021 23.7356 207.021 24.7044C207.021 25.6733 207.812 26.4013 208.755 26.4013C209.698 26.4013 210.494 25.676 210.494 24.7044C210.494 23.7329 209.701 23.0076 208.755 23.0076ZM208.755 26.0625C208.015 26.0625 207.376 25.4668 207.376 24.7018C207.376 23.9367 208.015 23.3411 208.755 23.3411C209.495 23.3411 210.134 23.9367 210.134 24.7018C210.134 25.4668 209.5 26.0625 208.755 26.0625ZM209.453 24.4291C209.453 24.0956 209.199 23.8811 208.826 23.8811H208.179V25.4271H208.512V24.9639H208.768L209.088 25.4271H209.508L209.135 24.9083C209.331 24.8262 209.45 24.6594 209.45 24.4291H209.453ZM208.824 24.6647H208.514V24.1962H208.824C209.003 24.1962 209.109 24.2915 209.109 24.4265C209.109 24.5694 209.003 24.6647 208.824 24.6647Z" fill="white"/>
<path d="M27.6838 7.93164C29.7474 7.93164 31.4203 6.25577 31.4203 4.18848C31.4203 2.12118 29.7474 0.445312 27.6838 0.445312C25.6202 0.445312 23.9473 2.12118 23.9473 4.18848C23.9473 6.25577 25.6202 7.93164 27.6838 7.93164Z" fill="white"/>
<path d="M19.4597 8.07457C20.8009 8.07457 21.8882 6.98537 21.8882 5.64178C21.8882 4.29818 20.8009 3.20898 19.4597 3.20898C18.1185 3.20898 17.0312 4.29818 17.0312 5.64178C17.0312 6.98537 18.1185 8.07457 19.4597 8.07457Z" fill="white"/>
<path d="M35.905 53.3314C37.2462 53.3314 38.3335 52.2422 38.3335 50.8986C38.3335 49.555 37.2462 48.4658 35.905 48.4658C34.5638 48.4658 33.4766 49.555 33.4766 50.8986C33.4766 52.2422 34.5638 53.3314 35.905 53.3314Z" fill="white"/>
<path d="M43.1349 50.4592C45.1985 50.4592 46.8714 48.7834 46.8714 46.7161C46.8714 44.6488 45.1985 42.9729 43.1349 42.9729C41.0713 42.9729 39.3984 44.6488 39.3984 46.7161C39.3984 48.7834 41.0713 50.4592 43.1349 50.4592Z" fill="white"/>
<path d="M48.5027 42.7425C49.8439 42.7425 50.9311 41.6533 50.9311 40.3097C50.9311 38.9662 49.8439 37.877 48.5027 37.877C47.1615 37.877 46.0742 38.9662 46.0742 40.3097C46.0742 41.6533 47.1615 42.7425 48.5027 42.7425Z" fill="white"/>
<path d="M4.01049 26.5204C5.35169 26.5204 6.43895 25.4312 6.43895 24.0876C6.43895 22.744 5.35169 21.6548 4.01049 21.6548C2.66929 21.6548 1.58203 22.744 1.58203 24.0876C1.58203 25.4312 2.66929 26.5204 4.01049 26.5204Z" fill="white"/>
<path d="M4.00993 36.196C6.07354 36.196 7.74643 34.5202 7.74643 32.4529C7.74643 30.3856 6.07354 28.7097 4.00993 28.7097C1.94632 28.7097 0.273438 30.3856 0.273438 32.4529C0.273438 34.5202 1.94632 36.196 4.00993 36.196Z" fill="white"/>
<path d="M6.86596 42.7425C8.20716 42.7425 9.29441 41.6533 9.29441 40.3097C9.29441 38.9662 8.20716 37.877 6.86596 37.877C5.52476 37.877 4.4375 38.9662 4.4375 40.3097C4.4375 41.6533 5.52476 42.7425 6.86596 42.7425Z" fill="white"/>
<path d="M48.5027 18.6634C49.8439 18.6634 50.9311 17.5742 50.9311 16.2306C50.9311 14.8871 49.8439 13.7979 48.5027 13.7979C47.1615 13.7979 46.0742 14.8871 46.0742 16.2306C46.0742 17.5742 47.1615 18.6634 48.5027 18.6634Z" fill="white"/>
<path d="M19.4597 53.3314C20.8009 53.3314 21.8882 52.2422 21.8882 50.8986C21.8882 49.555 20.8009 48.4658 19.4597 48.4658C18.1185 48.4658 17.0312 49.555 17.0312 50.8986C17.0312 52.2422 18.1185 53.3314 19.4597 53.3314Z" fill="white"/>
<path d="M35.905 8.07457C37.2462 8.07457 38.3335 6.98537 38.3335 5.64178C38.3335 4.29818 37.2462 3.20898 35.905 3.20898C34.5638 3.20898 33.4766 4.29818 33.4766 5.64178C33.4766 6.98537 34.5638 8.07457 35.905 8.07457Z" fill="white"/>
</g>
<defs>
<clipPath id="clip0_0_774">
<rect width="210.219" height="52.8887" fill="white" transform="translate(0.273438 0.445312)"/>
</clipPath>
</defs>
</svg>
